Coordinates
version=1
nRows=14
nColumns=36
inDegrees=yes

Units are S.I. units (second, meters, Newtons, ...)
If the header above contains a line with 'inDegrees', this indicates whether rotational values are in degrees (yes) or radians (no).

endheader
time	pelvis_tilt	pelvis_list	pelvis_rotation	pelvis_tx	pelvis_ty	pelvis_tz	hip_flexion_r	hip_adduction_r	hip_rotation_r	knee_angle_r	knee_angle_r_beta	ankle_angle_r	subtalar_angle_r	mtp_angle_r	hip_flexion_l	hip_adduction_l	hip_rotation_l	knee_angle_l	knee_angle_l_beta	ankle_angle_l	subtalar_angle_l	mtp_angle_l	lumbar_extension	lumbar_bending	lumbar_rotation	arm_flex_r	arm_add_r	arm_rot_r	elbow_flex_r	pro_sup_r	arm_flex_l	arm_add_l	arm_rot_l	elbow_flex_l	pro_sup_l
      0.00000000	     11.06747694	     -2.74318563	     -2.68951357	      0.41306039	      1.05023478	      0.68241718	      8.88162518	     -0.00205179	      0.85954155	     54.95525404	      0.95915012	     -2.17906229	    -15.60612677	     -7.26975007	     -7.87783285	      0.29642766	      0.98710585	      8.71284097	      0.15206776	      8.44300936	     -5.60205202	     -7.26975007	    -25.11827126	      1.31662163	      1.29354744	      4.36129724	    -14.39735152	      1.14916205	     34.31231965	     97.40393122	     11.53205859	    -12.27702249	      8.14285364	     25.77875831	     94.06959224
      0.01666670	     10.98256411	     -1.89069148	     -2.02372801	      0.40808114	      1.04734045	      0.68029971	     10.96787964	     -1.08047006	      0.04296041	     53.71839443	      0.93756285	      1.17502368	    -13.35492057	     -7.27880129	     -8.42144475	      1.31919840	      3.47386680	      9.68438610	      0.16902442	      9.01793454	     -6.44911790	     -7.27880129	    -24.61100037	      0.41439565	      0.43463714	      5.39515196	    -14.46760218	      4.25141096	     32.54844533	     98.31412282	     12.49490184	    -13.16436547	     12.82389935	     25.49198810	     94.76592591
      0.03333330	     11.08163773	     -1.12560300	     -1.44415889	      0.40501917	      1.04686949	      0.68015184	     12.28483947	     -2.05188097	     -0.35886296	     51.71665170	      0.90262585	      4.13732176	    -12.00118902	     -7.33243328	     -9.47831617	      2.01813890	      4.07449167	      9.58421633	      0.16727613	      8.90410738	     -6.10047420	     -7.33243328	    -24.92535511	     -0.53263828	      0.74949573	      4.20416461	    -14.46351417	      2.12218685	     34.10953222	    105.01580694	     14.52115101	    -13.84943951	     16.43677890	     25.33251810	    100.09623175
      0.05000000	     10.99678389	     -0.91142415	     -0.78862944	      0.40659038	      1.04500114	      0.68074116	     13.15928243	     -2.44539992	     -0.91917128	     48.75346559	      0.85090850	      5.51887672	    -11.77094819	     -7.33630201	    -10.48213814	      2.06422961	      3.89322346	      9.42820486	      0.16455322	      9.49841013	     -5.46402535	     -7.33630201	    -24.76433802	     -0.68904469	      0.24784997	      3.84051997	    -14.65990754	      2.37295689	     34.26263854	    105.08682882	     15.12937159	    -14.32089666	     17.11174058	     25.54256235	    100.29995257
      0.06666670	     10.76061685	     -0.88597223	     -0.62437853	      0.40950067	      1.04258023	      0.68242253	     13.83138566	     -2.42847194	     -0.95404061	     45.22903720	      0.78939562	      5.54632168	    -12.08477126	     -7.34015603	    -11.29142699	      2.00984886	      3.15063653	      9.46188275	      0.16514101	     10.02073054	     -5.08258718	     -7.34015603	    -24.32349211	     -0.78159515	      0.57102146	      2.89299398	    -15.02830197	      2.36359486	     34.74662388	    105.48713117	     15.88004823	    -14.72903184	     19.21372591	     25.48567145	    100.70884884
      0.08333330	     10.44756837	     -0.98023541	     -0.56942983	      0.41046865	      1.03986272	      0.68419964	     14.26388861	     -2.23578791	     -0.88931605	     41.13379152	      0.71792010	      4.90834850	    -12.70024341	     -7.34492740	    -11.96893498	      1.82766887	      2.55406573	      9.48161419	      0.16548539	     10.19753742	     -4.99997724	     -7.34492740	    -23.91176010	     -0.75266439	      1.28149710	      1.46326130	    -15.31324165	      1.22763178	     35.57865080	    105.20931235	     16.70881382	    -14.77195313	     20.38573948	     25.35668513	    100.38275941
      0.10000000	     10.11781418	     -1.07246051	     -0.51024432	      0.40915002	      1.03787108	      0.68569970	     14.50296933	     -2.03689952	     -0.80523560	     36.57816180	      0.63840936	      3.87979384	    -13.17107993	     -7.37375193	    -12.50740647	      1.57818956	      2.02828602	      9.57287657	      0.16707822	     10.06642074	     -5.24502324	     -7.37375193	    -23.58306903	     -0.84453458	      3.03809314	     -1.13240259	    -15.39097015	     -1.72786849	     37.28759198	    104.43873040	     18.77992894	    -14.40420264	     23.85788664	     24.25736277	     99.39609490
      0.11666670	      9.60366829	     -1.12433174	     -0.49562522	      0.40799387	      1.03627908	      0.68653430	     14.77933975	     -1.92585652	     -0.72065112	     31.74048398	      0.55397595	      2.56727853	    -13.40929293	     -7.37347053	    -12.78613478	      1.31233248	      1.43952756	      9.68917078	      0.16910793	      9.74324604	     -5.70155948	     -7.37347053	    -23.01690313	     -0.86493545	      3.39729846	     -2.01740362	    -15.39123313	     -2.40149920	     37.17663254	    104.14345976	     19.11931659	    -14.51645932	     23.67337993	     24.84293695	     98.56784673
      0.13333330	      9.26234571	     -1.12365484	     -0.50967403	      0.40764177	      1.03342242	      0.68691889	     14.69204297	     -1.95311247	     -0.70677519	     26.73223075	      0.46656544	      1.25814315	    -13.20196806	     -7.37455734	    -13.19599117	      1.06080912	      0.68237906	      9.82702455	      0.17151393	      9.61218820	     -5.68438104	     -7.37455734	    -22.67815920	     -0.92988721	      3.89748827	     -3.02797748	    -15.29493687	     -3.55443914	     37.44472555	    103.61539383	     19.71432583	    -14.49617875	     23.98781898	     25.02907283	     97.83449960
      0.15000000	      8.85956194	     -1.02600462	     -0.55509944	      0.40738482	      1.02986780	      0.68758521	     14.54686881	     -2.14389032	     -0.86814885	     21.81645985	      0.38076906	      0.33714802	    -12.10227684	     -7.40090133	    -13.46802523	      0.94522448	      0.16068490	      9.95162744	      0.17368866	      9.56956857	     -5.87661181	     -7.40090133	    -22.25580605	     -1.13927199	      5.27405922	     -5.04407545	    -15.00235002	     -6.22014828	     38.65877688	    102.52412811	     21.17605172	    -14.11090673	     26.68388881	     24.25805997	     96.32361803
      0.16666670	      8.27549705	     -0.83878724	     -0.58686233	      0.40733145	      1.02723103	      0.68858749	     14.54327221	     -2.39730938	     -1.07935697	     17.22791381	      0.30068382	     -0.14343575	    -10.44684536	     -7.40415973	    -13.46673876	      0.94454826	     -0.18395631	     10.03967215	      0.17522533	      9.85442561	     -5.96611614	     -7.40415973	    -21.50658336	     -1.33171146	      5.27191926	     -5.45738535	    -14.80011439	     -6.74567110	     38.30322648	    101.95014591	     20.99629994	    -14.37282960	     26.31505679	     24.85596169	     95.14388599
      0.18333330	      7.66366396	     -0.62521495	     -0.62294958	      0.40748141	      1.02718486	      0.68968585	     14.65875091	     -2.61096370	     -1.25545878	     13.30623416	      0.23223760	     -0.18595408	     -8.37569931	     -7.40080465	    -13.40898982	      1.00767851	     -0.38979843	     10.04344766	      0.17529123	     10.40763402	     -6.11355884	     -7.40080465	    -20.68491331	     -1.55675430	      5.38363690	     -5.87558435	    -14.54209511	     -7.45454580	     37.96766363	    101.58353659	     20.77399164	    -14.57968535	     26.02313633	     25.36574106	     94.44055690
      0.20000000	      7.17246872	     -0.46022687	     -0.58224167	      0.40750114	      1.02813945	      0.69083305	     14.77679339	     -2.71308727	     -1.43914309	     10.23158919	      0.17857492	      0.24378761	     -6.00479746	     -7.40021130	    -13.50438933	      1.02055728	     -0.60281823	      9.97185099	      0.17404163	     11.15208768	     -6.01072118	     -7.40021130	    -20.01847194	     -1.68502616	      5.33624341	     -6.15869409	    -14.34187343	     -8.01940333	     37.84105140	    100.86129223	     20.42082261	    -14.84057993	     25.83271448	     25.87128008	     93.32789681
      0.21666670	      6.72552715	     -0.39448626	     -0.53430450	      0.40743582	      1.02681099	      0.69160758	     15.00681141	     -2.60134931	     -1.20476954	      7.98307933	      0.13933102	      0.34298582	     -4.61289702	     -7.40133801	    -13.68832922	      0.95704782	     -0.83899100	      9.90157137	      0.17281502	     11.76910679	     -6.15200919	     -7.40133801	    -19.35780694	     -1.70049112	      5.45158161	     -6.47858109	    -14.33195635	     -8.25157843	     37.78293170	    100.75751535	     20.22062254	    -14.92877491	     25.86298727	     25.97960870	     93.29100495
